<svg id="visual" viewBox="0 0 960 540" width="960" height="540" xmlns="http://www.w3.org/2000/svg" xmlns:xlink="http://www.w3.org/1999/xlink" version="1.1"><rect x="0" y="0" width="960" height="540" fill="#ffffff"></rect><defs><linearGradient id="grad1_0" x1="43.8%" y1="100%" x2="100%" y2="0%"><stop offset="14.444444444444446%" stop-color="#ffffff" stop-opacity="1"></stop><stop offset="85.55555555555554%" stop-color="#ffffff" stop-opacity="1"></stop></linearGradient></defs><defs><linearGradient id="grad2_0" x1="0%" y1="100%" x2="56.3%" y2="0%"><stop offset="14.444444444444446%" stop-color="#ffffff" stop-opacity="1"></stop><stop offset="85.55555555555554%" stop-color="#ffffff" stop-opacity="1"></stop></linearGradient></defs><g transform="translate(960, 540)"><path d="M-324 0C-292.9 -24 -261.7 -48.1 -257.7 -83.7C-253.7 -119.4 -276.9 -166.6 -262.1 -190.4C-247.4 -214.2 -194.8 -214.6 -159.3 -219.2C-123.8 -223.9 -105.3 -232.9 -81.6 -251.1C-57.9 -269.3 -28.9 -296.6 0 -324L0 0Z" fill="#668D2E"></path></g><g transform="translate(0, 0)"><path d="M324 0C325.8 37.4 327.5 74.7 308.1 100.1C288.7 125.5 248.2 139 225.7 164C203.3 189 198.9 225.5 179.3 246.8C159.7 268 124.8 274 92.4 284.4C60 294.7 30 309.4 0 324L0 0Z" fill="#668D2E"></path></g></svg>