<svg id="visual" viewBox="0 0 960 540" width="960" height="540" xmlns="http://www.w3.org/2000/svg" xmlns:xlink="http://www.w3.org/1999/xlink" version="1.1"><rect x="0" y="0" width="960" height="540" fill="#ffffff"></rect><defs><linearGradient id="grad1_0" x1="43.8%" y1="0%" x2="100%" y2="100%"><stop offset="14.444444444444446%" stop-color="#ffffff" stop-opacity="1"></stop><stop offset="85.55555555555554%" stop-color="#ffffff" stop-opacity="1"></stop></linearGradient></defs><defs><linearGradient id="grad2_0" x1="0%" y1="0%" x2="56.3%" y2="100%"><stop offset="14.444444444444446%" stop-color="#ffffff" stop-opacity="1"></stop><stop offset="85.55555555555554%" stop-color="#ffffff" stop-opacity="1"></stop></linearGradient></defs><g transform="translate(960, 0)"><path d="M0 324C-24 292.9 -48.1 261.7 -83.7 257.7C-119.4 253.7 -166.6 276.9 -190.4 262.1C-214.2 247.4 -214.6 194.8 -219.2 159.3C-223.9 123.8 -232.9 105.3 -251.1 81.6C-269.3 57.9 -296.6 28.9 -324 0L0 0Z" fill="#668D2E"></path></g><g transform="translate(0, 540)"><path d="M0 -324C37.4 -325.8 74.7 -327.5 100.1 -308.1C125.5 -288.7 139 -248.2 164 -225.7C189 -203.3 225.5 -198.9 246.8 -179.3C268 -159.7 274 -124.8 284.4 -92.4C294.7 -60 309.4 -30 324 0L0 0Z" fill="#668D2E"></path></g></svg>